HIERARCHY
ROOT Hips
{
	OFFSET 0.000000 0.000000 0.000000
	CHANNELS 6 Xposition Yposition Zposition Zrotation Yrotation Xrotation 
	JOINT LeftUpLeg_virtual
	{
		OFFSET 0.000000 0.000000 0.000000
		CHANNELS 3 Zrotation Yrotation Xrotation
		JOINT LeftUpLeg
		{
			OFFSET 8.479694 -4.795517 -0.379053
			CHANNELS 3 Zrotation Yrotation Xrotation
			JOINT LeftLeg
			{
				OFFSET 0.485052 -32.551468 0.112863
				CHANNELS 3 Zrotation Yrotation Xrotation
				JOINT LeftFoot
				{
					OFFSET 0.438033 -32.635670 -3.012641
					CHANNELS 3 Zrotation Yrotation Xrotation
					JOINT LeftToeBase
					{
						OFFSET 0.970169 -13.225353 11.864223
						CHANNELS 3 Zrotation Yrotation Xrotation
						End Site
						{
							OFFSET 0.000000 0.000000 0.000000
						}
					}
				}
			}
		}
	}
	JOINT RightUpLeg_virtual
	{
		OFFSET 0.000000 0.000000 0.000000
		CHANNELS 3 Zrotation Yrotation Xrotation
		JOINT RightUpLeg
		{
			OFFSET -8.479694 -4.795517 -0.379053
			CHANNELS 3 Zrotation Yrotation Xrotation
			JOINT RightLeg
			{
				OFFSET -0.484100 -32.551483 0.112903
				CHANNELS 3 Zrotation Yrotation Xrotation
				JOINT RightFoot
				{
					OFFSET -0.438985 -32.635651 -3.012681
					CHANNELS 3 Zrotation Yrotation Xrotation
					JOINT RightToeBase
					{
						OFFSET -0.970169 -13.225354 11.864223
						CHANNELS 3 Zrotation Yrotation Xrotation
						End Site
						{
							OFFSET 0.000000 0.000000 0.000000
						}
					}
				}
			}
		}
	}
	JOINT Spine_virtual
	{
		OFFSET 0.000000 0.000000 0.000000
		CHANNELS 3 Zrotation Yrotation Xrotation
		JOINT Spine
		{
			OFFSET 0.000000 7.722015 1.166203
			CHANNELS 3 Zrotation Yrotation Xrotation
			JOINT Spine1
			{
				OFFSET 0.000000 12.024086 0.248766
				CHANNELS 3 Zrotation Yrotation Xrotation
				JOINT Spine2
				{
					OFFSET -0.000000 11.503036 -0.491240
					CHANNELS 3 Zrotation Yrotation Xrotation
					JOINT Neck_virtual
					{
						OFFSET 0.000000 0.000000 0.000000
						CHANNELS 3 Zrotation Yrotation Xrotation
						JOINT Neck
						{
							OFFSET 0.000000 18.430687 -3.123054
							CHANNELS 3 Zrotation Yrotation Xrotation
							JOINT Head
							{
								OFFSET -0.000000 9.051071 1.034021
								CHANNELS 3 Zrotation Yrotation Xrotation
								End Site
								{
									OFFSET 0.000000 0.000000 0.000000
								}
							}
						}
					}
					JOINT LeftShoulder_virtual
					{
						OFFSET 0.000000 0.000000 0.000000
						CHANNELS 3 Zrotation Yrotation Xrotation
						JOINT LeftShoulder
						{
							OFFSET 6.197824 13.665230 -4.064723
							CHANNELS 3 Zrotation Yrotation Xrotation
							JOINT LeftArm
							{
								OFFSET 7.778132 -0.187073 -1.709282
								CHANNELS 3 Zrotation Yrotation Xrotation
								JOINT LeftForeArm
								{
									OFFSET 21.954697 0.000000 -2.041093
									CHANNELS 3 Zrotation Yrotation Xrotation
									JOINT LeftHand
									{
										OFFSET 22.992908 0.000000 -0.870901
										CHANNELS 3 Zrotation Yrotation Xrotation
										End Site
										{
											OFFSET 0.000000 0.000000 0.000000
										}
									}
								}
							}
						}
					}
					JOINT RightShoulder_virtual
					{
						OFFSET 0.000000 0.000000 0.000000
						CHANNELS 3 Zrotation Yrotation Xrotation
						JOINT RightShoulder
						{
							OFFSET -6.197824 13.665230 -4.064723
							CHANNELS 3 Zrotation Yrotation Xrotation
							JOINT RightArm
							{
								OFFSET -7.778132 -0.187073 -1.709282
								CHANNELS 3 Zrotation Yrotation Xrotation
								JOINT RightForeArm
								{
									OFFSET -21.954697 0.000000 -2.041093
									CHANNELS 3 Zrotation Yrotation Xrotation
									JOINT RightHand
									{
										OFFSET -22.992908 0.000000 -0.870901
										CHANNELS 3 Zrotation Yrotation Xrotation
										End Site
										{
											OFFSET 0.000000 0.000000 0.000000
										}
									}
								}
							}
						}
					}
				}
			}
		}
	}
}
MOTION
Frames: 7
Frame Time: 0.033333
16.911154 78.937752 -116.996201 0.772411 -67.630429 -1.095880 -1.842460 -1.226757 12.582051 6.231964 -3.393790 -39.315467 8.027050 9.409960 27.807288 -8.337458 -0.883704 -1.758803 0.000000 0.000000 0.000000 3.961980 -2.411789 11.302143 -3.106836 4.374500 -35.792059 0.728115 9.975472 32.799064 8.195760 6.095120 -8.275479 0.000000 0.000000 0.000000 2.672942 1.742268 1.802022 -3.676244 0.527853 -6.106801 -2.113661 -2.579417 7.070711 0.000558 0.045712 -0.070657 -2.263638 -1.316395 8.025031 -7.632204 -1.371321 -11.790322 0.000000 0.000000 0.000000 -0.331504 -0.444940 5.409185 -1.414231 -9.046400 5.385566 -43.011675 -15.530493 27.603800 0.459663 -19.189756 2.372576 0.000000 0.000000 0.000000 -5.317890 0.976164 4.882516 33.476396 2.147607 9.802621 48.859567 -1.404443 2.344909 -5.613966 11.524900 -0.064695 0.000000 0.000000 0.000000 
16.655382 78.915398 -117.056435 0.978873 -67.667620 -1.436830 -1.900576 -1.553546 12.867276 6.156330 -3.517314 -39.478220 7.998164 8.991445 27.947157 -8.408359 -1.016815 -1.060619 0.000000 0.000000 0.000000 4.356926 -2.438311 11.259844 -3.530970 4.223210 -36.164397 0.711291 10.249910 32.529712 8.000425 5.903637 -8.089426 0.000000 0.000000 0.000000 2.665913 1.616910 2.133619 -3.646042 0.551490 -6.091776 -2.051796 -2.659431 7.107878 0.029686 0.002904 -0.099053 -2.289079 -1.361817 7.918213 -7.725268 -1.298902 -11.791815 0.000000 0.000000 0.000000 -0.385363 -0.580933 5.350464 -1.229542 -9.041165 5.161644 -42.689741 -16.292988 25.931954 0.334410 -18.433760 2.330319 0.000000 0.000000 0.000000 -5.364906 0.996488 4.779799 33.344106 2.298280 9.820759 48.787249 -1.049502 2.807313 -5.662961 11.426647 -0.023848 0.000000 0.000000 0.000000 
16.281763 78.815346 -117.181137 0.706085 -68.230366 -1.147129 -1.793152 -1.537377 12.944415 6.242194 -3.603413 -39.623731 8.380494 8.477504 28.768658 -7.946563 -0.986905 -1.906746 0.000000 0.000000 0.000000 5.223846 -2.830952 11.236205 -4.048225 3.335056 -36.306246 1.420416 10.685382 32.633438 8.460597 6.446534 -8.014496 0.000000 0.000000 0.000000 2.791814 1.478588 2.330751 -3.437406 0.783029 -6.139141 -2.022423 -2.651291 7.072275 0.013769 0.055058 -0.083882 -2.325036 -1.374360 7.885942 -7.869316 -1.367056 -11.661958 0.000000 0.000000 0.000000 -0.466399 -0.620225 5.349404 -1.005307 -8.842126 4.966158 -42.536106 -17.275751 22.592485 0.228272 -16.585123 1.998422 0.000000 0.000000 0.000000 -5.377841 0.788011 4.699194 33.107033 2.615997 9.765164 48.454065 -0.503870 3.429210 -5.623249 11.329906 0.037364 0.000000 0.000000 0.000000 
15.829169 78.639496 -117.385544 0.719081 -68.611545 -1.134252 -1.593897 -1.774956 13.093544 6.175773 -3.775641 -39.834763 8.889384 7.843589 29.758967 -7.778532 -1.072388 -2.793376 0.000000 0.000000 0.000000 4.412694 -3.092132 11.193440 -2.941234 3.143292 -36.245017 1.874565 10.425706 32.738941 8.633674 6.627918 -8.053423 0.000000 0.000000 0.000000 2.875924 1.184221 2.471564 -3.168882 0.987346 -6.112076 -2.154114 -2.685513 7.014095 0.014440 0.080479 -0.137721 -2.362100 -1.431718 7.728025 -8.151014 -1.271705 -11.824805 0.000000 0.000000 0.000000 -0.477100 -0.604751 5.258383 -0.703142 -8.448513 4.812569 -42.820351 -17.888566 18.433736 0.136880 -14.196599 1.351302 0.000000 0.000000 0.000000 -5.433797 0.832336 4.474944 33.017281 2.745356 9.773241 47.907770 -0.106491 3.971840 -5.451112 11.270015 0.357850 0.000000 0.000000 0.000000 
15.342729 78.424416 -117.618362 0.974021 -68.839851 -1.276323 -1.678167 -2.166831 13.238561 6.495580 -3.913619 -40.196971 9.388209 7.615151 30.968508 -7.764054 -1.358062 -3.883371 0.000000 0.000000 0.000000 3.351309 -3.367395 11.129803 -1.866845 3.283433 -36.092038 1.725782 8.868457 32.869773 9.362734 7.215856 -8.183014 0.000000 0.000000 0.000000 2.931039 0.865659 2.513457 -2.945635 1.217359 -6.051018 -2.260134 -2.738121 6.877825 0.064897 0.067750 -0.040476 -2.478386 -1.573907 7.615491 -8.515248 -1.293065 -11.831918 0.000000 0.000000 0.000000 -0.567518 -0.660060 5.063991 -0.342920 -7.959675 4.626240 -43.809704 -17.827506 14.571908 -0.015848 -12.007633 0.865334 0.000000 0.000000 0.000000 -5.505889 0.743436 4.258161 32.841763 2.763591 9.685203 47.362420 0.292158 4.125739 -5.214148 11.253054 0.265516 0.000000 0.000000 0.000000 
14.861499 78.205666 -117.862770 0.806977 -68.803392 -1.018048 -1.773927 -2.382323 13.386267 6.940258 -3.577377 -40.812405 9.602082 7.152319 32.404617 -7.834995 -1.685938 -4.901407 0.000000 0.000000 0.000000 2.926010 -3.631108 11.032683 -1.329652 3.362608 -36.010919 1.615827 7.753173 32.961793 9.645486 7.708134 -8.395355 0.000000 0.000000 0.000000 3.003071 0.618141 2.505973 -2.607616 1.420432 -5.904281 -2.264989 -2.744072 6.796161 0.054865 0.106351 -0.019680 -2.506726 -1.641819 7.602740 -8.829980 -1.405616 -11.887949 0.000000 0.000000 0.000000 -0.605954 -0.624927 4.957726 0.144495 -7.542628 4.407582 -45.501655 -17.282892 11.701187 -0.297043 -10.593646 0.503156 0.000000 0.000000 0.000000 -5.542591 0.711488 4.073979 32.752212 2.533016 9.603152 46.912929 0.723279 3.519474 -4.918282 11.218102 0.438401 0.000000 0.000000 0.000000 
14.390846 77.998520 -118.095398 0.744033 -68.318107 -0.733519 -2.031253 -2.267275 13.344469 7.323874 -3.083512 -41.677859 9.648187 7.001756 34.280474 -8.096994 -2.112392 -6.163941 0.000000 0.000000 0.000000 2.597348 -3.822449 11.046192 -0.792090 3.408251 -36.042095 1.513405 7.043661 33.045975 9.742627 7.822554 -8.464277 0.000000 0.000000 0.000000 2.967585 0.470915 2.467606 -2.305428 1.524131 -5.750490 -2.219234 -2.792974 6.656421 0.027510 0.092931 -0.014954 -2.451427 -1.614612 7.416446 -9.200693 -1.238602 -12.297591 0.000000 0.000000 0.000000 -0.511534 -0.638584 4.861488 0.919264 -7.324653 4.194939 -47.528916 -16.692513 9.833670 -0.491979 -9.749728 0.021111 0.000000 0.000000 0.000000 -5.439512 0.674646 3.942543 32.644961 2.331387 9.466985 46.620023 1.449881 2.253265 -4.695782 11.069879 0.120990 0.000000 0.000000 0.000000 
